<mxfile host="app.diagrams.net" modified="2024-05-13T20:03:28.256Z" agent="Mozilla/5.0 (Windows NT 10.0; Win64; x64) AppleWebKit/537.36 (KHTML, like Gecko) Chrome/123.0.0.0 Safari/537.36 OPR/109.0.0.0" etag="wRVEokPYSy9IAMJTVJZs" version="24.4.0" type="device">
  <diagram id="C5RBs43oDa-KdzZeNtuy" name="Page-1">
    <mxGraphModel dx="1009" dy="573" grid="1" gridSize="10" guides="1" tooltips="1" connect="1" arrows="1" fold="1" page="1" pageScale="1" pageWidth="827" pageHeight="1169" math="0" shadow="0">
      <root>
        <mxCell id="WIyWlLk6GJQsqaUBKTNV-0" />
        <mxCell id="WIyWlLk6GJQsqaUBKTNV-1" parent="WIyWlLk6GJQsqaUBKTNV-0" />
        <mxCell id="WIyWlLk6GJQsqaUBKTNV-2" value="" style="rounded=0;html=1;jettySize=auto;orthogonalLoop=1;fontSize=11;endArrow=block;endFill=0;endSize=8;strokeWidth=1;shadow=0;labelBackgroundColor=none;edgeStyle=orthogonalEdgeStyle;" parent="WIyWlLk6GJQsqaUBKTNV-1" source="WIyWlLk6GJQsqaUBKTNV-3" target="WIyWlLk6GJQsqaUBKTNV-6" edge="1">
          <mxGeometry relative="1" as="geometry" />
        </mxCell>
        <mxCell id="WIyWlLk6GJQsqaUBKTNV-3" value="checkBoot" style="rounded=1;whiteSpace=wrap;html=1;fontSize=12;glass=0;strokeWidth=1;shadow=0;" parent="WIyWlLk6GJQsqaUBKTNV-1" vertex="1">
          <mxGeometry x="160" y="80" width="120" height="40" as="geometry" />
        </mxCell>
        <mxCell id="WIyWlLk6GJQsqaUBKTNV-4" value="Yes" style="rounded=0;html=1;jettySize=auto;orthogonalLoop=1;fontSize=11;endArrow=block;endFill=0;endSize=8;strokeWidth=1;shadow=0;labelBackgroundColor=none;edgeStyle=orthogonalEdgeStyle;" parent="WIyWlLk6GJQsqaUBKTNV-1" source="WIyWlLk6GJQsqaUBKTNV-6" target="WIyWlLk6GJQsqaUBKTNV-10" edge="1">
          <mxGeometry y="20" relative="1" as="geometry">
            <mxPoint as="offset" />
          </mxGeometry>
        </mxCell>
        <mxCell id="WIyWlLk6GJQsqaUBKTNV-5" value="No" style="edgeStyle=orthogonalEdgeStyle;rounded=0;html=1;jettySize=auto;orthogonalLoop=1;fontSize=11;endArrow=block;endFill=0;endSize=8;strokeWidth=1;shadow=0;labelBackgroundColor=none;" parent="WIyWlLk6GJQsqaUBKTNV-1" source="WIyWlLk6GJQsqaUBKTNV-6" target="WIyWlLk6GJQsqaUBKTNV-7" edge="1">
          <mxGeometry y="10" relative="1" as="geometry">
            <mxPoint as="offset" />
          </mxGeometry>
        </mxCell>
        <mxCell id="WIyWlLk6GJQsqaUBKTNV-6" value="Porta Fechada?" style="rhombus;whiteSpace=wrap;html=1;shadow=0;fontFamily=Helvetica;fontSize=12;align=center;strokeWidth=1;spacing=6;spacingTop=-4;" parent="WIyWlLk6GJQsqaUBKTNV-1" vertex="1">
          <mxGeometry x="170" y="170" width="100" height="80" as="geometry" />
        </mxCell>
        <mxCell id="YItXJIGkTRW7YODAp5qy-2" style="edgeStyle=orthogonalEdgeStyle;rounded=0;orthogonalLoop=1;jettySize=auto;html=1;entryX=0.5;entryY=0;entryDx=0;entryDy=0;" edge="1" parent="WIyWlLk6GJQsqaUBKTNV-1" source="WIyWlLk6GJQsqaUBKTNV-7" target="WIyWlLk6GJQsqaUBKTNV-6">
          <mxGeometry relative="1" as="geometry">
            <Array as="points">
              <mxPoint x="370" y="150" />
              <mxPoint x="220" y="150" />
            </Array>
          </mxGeometry>
        </mxCell>
        <mxCell id="WIyWlLk6GJQsqaUBKTNV-7" value="Pede para fechar porta" style="rounded=1;whiteSpace=wrap;html=1;fontSize=12;glass=0;strokeWidth=1;shadow=0;" parent="WIyWlLk6GJQsqaUBKTNV-1" vertex="1">
          <mxGeometry x="320" y="190" width="120" height="40" as="geometry" />
        </mxCell>
        <mxCell id="WIyWlLk6GJQsqaUBKTNV-8" value="yes" style="rounded=0;html=1;jettySize=auto;orthogonalLoop=1;fontSize=11;endArrow=block;endFill=0;endSize=8;strokeWidth=1;shadow=0;labelBackgroundColor=none;edgeStyle=orthogonalEdgeStyle;" parent="WIyWlLk6GJQsqaUBKTNV-1" source="WIyWlLk6GJQsqaUBKTNV-10" target="WIyWlLk6GJQsqaUBKTNV-11" edge="1">
          <mxGeometry x="0.3333" y="20" relative="1" as="geometry">
            <mxPoint as="offset" />
          </mxGeometry>
        </mxCell>
        <mxCell id="WIyWlLk6GJQsqaUBKTNV-9" value="NO" style="edgeStyle=orthogonalEdgeStyle;rounded=0;html=1;jettySize=auto;orthogonalLoop=1;fontSize=11;endArrow=block;endFill=0;endSize=8;strokeWidth=1;shadow=0;labelBackgroundColor=none;" parent="WIyWlLk6GJQsqaUBKTNV-1" source="WIyWlLk6GJQsqaUBKTNV-10" target="WIyWlLk6GJQsqaUBKTNV-12" edge="1">
          <mxGeometry y="10" relative="1" as="geometry">
            <mxPoint as="offset" />
          </mxGeometry>
        </mxCell>
        <mxCell id="WIyWlLk6GJQsqaUBKTNV-10" value="Tem água?" style="rhombus;whiteSpace=wrap;html=1;shadow=0;fontFamily=Helvetica;fontSize=12;align=center;strokeWidth=1;spacing=6;spacingTop=-4;" parent="WIyWlLk6GJQsqaUBKTNV-1" vertex="1">
          <mxGeometry x="170" y="290" width="100" height="80" as="geometry" />
        </mxCell>
        <mxCell id="YItXJIGkTRW7YODAp5qy-4" value="" style="edgeStyle=orthogonalEdgeStyle;rounded=0;orthogonalLoop=1;jettySize=auto;html=1;" edge="1" parent="WIyWlLk6GJQsqaUBKTNV-1" source="WIyWlLk6GJQsqaUBKTNV-11">
          <mxGeometry relative="1" as="geometry">
            <mxPoint x="220" y="540" as="targetPoint" />
            <Array as="points">
              <mxPoint x="200" y="505" />
              <mxPoint x="221" y="505" />
            </Array>
          </mxGeometry>
        </mxCell>
        <mxCell id="YItXJIGkTRW7YODAp5qy-6" value="Digita D (tecla para digitar a senha)" style="edgeLabel;html=1;align=center;verticalAlign=middle;resizable=0;points=[];" vertex="1" connectable="0" parent="YItXJIGkTRW7YODAp5qy-4">
          <mxGeometry x="0.1778" y="-1" relative="1" as="geometry">
            <mxPoint as="offset" />
          </mxGeometry>
        </mxCell>
        <mxCell id="WIyWlLk6GJQsqaUBKTNV-11" value="Standby (esperando input)" style="rounded=1;whiteSpace=wrap;html=1;fontSize=12;glass=0;strokeWidth=1;shadow=0;" parent="WIyWlLk6GJQsqaUBKTNV-1" vertex="1">
          <mxGeometry x="140" y="430" width="120" height="40" as="geometry" />
        </mxCell>
        <mxCell id="WIyWlLk6GJQsqaUBKTNV-12" value="Exibe falta de água" style="rounded=1;whiteSpace=wrap;html=1;fontSize=12;glass=0;strokeWidth=1;shadow=0;" parent="WIyWlLk6GJQsqaUBKTNV-1" vertex="1">
          <mxGeometry x="320" y="310" width="120" height="40" as="geometry" />
        </mxCell>
        <mxCell id="YItXJIGkTRW7YODAp5qy-15" style="edgeStyle=orthogonalEdgeStyle;rounded=0;orthogonalLoop=1;jettySize=auto;html=1;entryX=0.5;entryY=0;entryDx=0;entryDy=0;" edge="1" parent="WIyWlLk6GJQsqaUBKTNV-1" source="YItXJIGkTRW7YODAp5qy-7" target="YItXJIGkTRW7YODAp5qy-8">
          <mxGeometry relative="1" as="geometry" />
        </mxCell>
        <mxCell id="YItXJIGkTRW7YODAp5qy-7" value="Digitar Senha" style="rounded=1;whiteSpace=wrap;html=1;" vertex="1" parent="WIyWlLk6GJQsqaUBKTNV-1">
          <mxGeometry x="140" y="540" width="120" height="60" as="geometry" />
        </mxCell>
        <mxCell id="YItXJIGkTRW7YODAp5qy-11" style="edgeStyle=orthogonalEdgeStyle;rounded=0;orthogonalLoop=1;jettySize=auto;html=1;entryX=0.5;entryY=0;entryDx=0;entryDy=0;" edge="1" parent="WIyWlLk6GJQsqaUBKTNV-1" source="YItXJIGkTRW7YODAp5qy-8" target="YItXJIGkTRW7YODAp5qy-10">
          <mxGeometry relative="1" as="geometry" />
        </mxCell>
        <mxCell id="YItXJIGkTRW7YODAp5qy-12" value="Yes" style="edgeLabel;html=1;align=center;verticalAlign=middle;resizable=0;points=[];" vertex="1" connectable="0" parent="YItXJIGkTRW7YODAp5qy-11">
          <mxGeometry x="0.1333" y="2" relative="1" as="geometry">
            <mxPoint as="offset" />
          </mxGeometry>
        </mxCell>
        <mxCell id="YItXJIGkTRW7YODAp5qy-33" style="edgeStyle=orthogonalEdgeStyle;rounded=0;orthogonalLoop=1;jettySize=auto;html=1;entryX=0;entryY=0.5;entryDx=0;entryDy=0;" edge="1" parent="WIyWlLk6GJQsqaUBKTNV-1" source="YItXJIGkTRW7YODAp5qy-8" target="YItXJIGkTRW7YODAp5qy-16">
          <mxGeometry relative="1" as="geometry">
            <mxPoint x="290" y="700" as="targetPoint" />
          </mxGeometry>
        </mxCell>
        <mxCell id="YItXJIGkTRW7YODAp5qy-34" style="edgeStyle=orthogonalEdgeStyle;rounded=0;orthogonalLoop=1;jettySize=auto;html=1;entryX=0;entryY=0.5;entryDx=0;entryDy=0;" edge="1" parent="WIyWlLk6GJQsqaUBKTNV-1" source="YItXJIGkTRW7YODAp5qy-8" target="YItXJIGkTRW7YODAp5qy-27">
          <mxGeometry relative="1" as="geometry">
            <Array as="points">
              <mxPoint x="280" y="700" />
              <mxPoint x="280" y="630" />
            </Array>
          </mxGeometry>
        </mxCell>
        <mxCell id="YItXJIGkTRW7YODAp5qy-8" value="Senha Correta?" style="rhombus;whiteSpace=wrap;html=1;" vertex="1" parent="WIyWlLk6GJQsqaUBKTNV-1">
          <mxGeometry x="150" y="660" width="100" height="80" as="geometry" />
        </mxCell>
        <mxCell id="YItXJIGkTRW7YODAp5qy-57" style="edgeStyle=orthogonalEdgeStyle;rounded=0;orthogonalLoop=1;jettySize=auto;html=1;entryX=0.5;entryY=0;entryDx=0;entryDy=0;" edge="1" parent="WIyWlLk6GJQsqaUBKTNV-1" source="YItXJIGkTRW7YODAp5qy-10" target="YItXJIGkTRW7YODAp5qy-56">
          <mxGeometry relative="1" as="geometry" />
        </mxCell>
        <mxCell id="YItXJIGkTRW7YODAp5qy-60" style="edgeStyle=orthogonalEdgeStyle;rounded=0;orthogonalLoop=1;jettySize=auto;html=1;entryX=0.5;entryY=0;entryDx=0;entryDy=0;" edge="1" parent="WIyWlLk6GJQsqaUBKTNV-1" source="YItXJIGkTRW7YODAp5qy-10" target="YItXJIGkTRW7YODAp5qy-59">
          <mxGeometry relative="1" as="geometry" />
        </mxCell>
        <mxCell id="YItXJIGkTRW7YODAp5qy-10" value="Abre Cofre" style="rounded=1;whiteSpace=wrap;html=1;" vertex="1" parent="WIyWlLk6GJQsqaUBKTNV-1">
          <mxGeometry x="140" y="800" width="120" height="60" as="geometry" />
        </mxCell>
        <mxCell id="YItXJIGkTRW7YODAp5qy-18" style="edgeStyle=orthogonalEdgeStyle;rounded=0;orthogonalLoop=1;jettySize=auto;html=1;entryX=0;entryY=0.5;entryDx=0;entryDy=0;" edge="1" parent="WIyWlLk6GJQsqaUBKTNV-1" source="YItXJIGkTRW7YODAp5qy-16" target="YItXJIGkTRW7YODAp5qy-17">
          <mxGeometry relative="1" as="geometry" />
        </mxCell>
        <mxCell id="YItXJIGkTRW7YODAp5qy-16" value="Aciona Água" style="rounded=1;whiteSpace=wrap;html=1;" vertex="1" parent="WIyWlLk6GJQsqaUBKTNV-1">
          <mxGeometry x="310" y="670" width="120" height="60" as="geometry" />
        </mxCell>
        <mxCell id="YItXJIGkTRW7YODAp5qy-21" style="edgeStyle=orthogonalEdgeStyle;rounded=0;orthogonalLoop=1;jettySize=auto;html=1;entryX=0.5;entryY=0;entryDx=0;entryDy=0;" edge="1" parent="WIyWlLk6GJQsqaUBKTNV-1" source="YItXJIGkTRW7YODAp5qy-17" target="YItXJIGkTRW7YODAp5qy-20">
          <mxGeometry relative="1" as="geometry" />
        </mxCell>
        <mxCell id="YItXJIGkTRW7YODAp5qy-24" value="No" style="edgeLabel;html=1;align=center;verticalAlign=middle;resizable=0;points=[];" vertex="1" connectable="0" parent="YItXJIGkTRW7YODAp5qy-21">
          <mxGeometry x="-0.3333" relative="1" as="geometry">
            <mxPoint as="offset" />
          </mxGeometry>
        </mxCell>
        <mxCell id="YItXJIGkTRW7YODAp5qy-22" style="edgeStyle=orthogonalEdgeStyle;rounded=0;orthogonalLoop=1;jettySize=auto;html=1;entryX=0;entryY=0.5;entryDx=0;entryDy=0;" edge="1" parent="WIyWlLk6GJQsqaUBKTNV-1" source="YItXJIGkTRW7YODAp5qy-17" target="YItXJIGkTRW7YODAp5qy-19">
          <mxGeometry relative="1" as="geometry" />
        </mxCell>
        <mxCell id="YItXJIGkTRW7YODAp5qy-23" value="YEs&lt;div&gt;&lt;br&gt;&lt;/div&gt;" style="edgeLabel;html=1;align=center;verticalAlign=middle;resizable=0;points=[];" vertex="1" connectable="0" parent="YItXJIGkTRW7YODAp5qy-22">
          <mxGeometry x="-0.4" y="-4" relative="1" as="geometry">
            <mxPoint as="offset" />
          </mxGeometry>
        </mxCell>
        <mxCell id="YItXJIGkTRW7YODAp5qy-17" value="Tem Água?" style="rhombus;whiteSpace=wrap;html=1;" vertex="1" parent="WIyWlLk6GJQsqaUBKTNV-1">
          <mxGeometry x="480" y="660" width="100" height="80" as="geometry" />
        </mxCell>
        <mxCell id="YItXJIGkTRW7YODAp5qy-49" style="edgeStyle=orthogonalEdgeStyle;rounded=0;orthogonalLoop=1;jettySize=auto;html=1;entryX=0.5;entryY=0;entryDx=0;entryDy=0;" edge="1" parent="WIyWlLk6GJQsqaUBKTNV-1" source="YItXJIGkTRW7YODAp5qy-19" target="YItXJIGkTRW7YODAp5qy-47">
          <mxGeometry relative="1" as="geometry">
            <Array as="points">
              <mxPoint x="650" y="760" />
              <mxPoint x="650" y="760" />
            </Array>
          </mxGeometry>
        </mxCell>
        <mxCell id="YItXJIGkTRW7YODAp5qy-19" value="Joga Água" style="rounded=1;whiteSpace=wrap;html=1;" vertex="1" parent="WIyWlLk6GJQsqaUBKTNV-1">
          <mxGeometry x="630" y="670" width="120" height="60" as="geometry" />
        </mxCell>
        <mxCell id="YItXJIGkTRW7YODAp5qy-48" style="edgeStyle=orthogonalEdgeStyle;rounded=0;orthogonalLoop=1;jettySize=auto;html=1;entryX=0.5;entryY=0;entryDx=0;entryDy=0;" edge="1" parent="WIyWlLk6GJQsqaUBKTNV-1" source="YItXJIGkTRW7YODAp5qy-20" target="YItXJIGkTRW7YODAp5qy-47">
          <mxGeometry relative="1" as="geometry" />
        </mxCell>
        <mxCell id="YItXJIGkTRW7YODAp5qy-20" value="Exibe falta de água" style="rounded=1;whiteSpace=wrap;html=1;" vertex="1" parent="WIyWlLk6GJQsqaUBKTNV-1">
          <mxGeometry x="470" y="800" width="120" height="60" as="geometry" />
        </mxCell>
        <mxCell id="YItXJIGkTRW7YODAp5qy-27" value="Aciona Contador" style="rounded=1;whiteSpace=wrap;html=1;" vertex="1" parent="WIyWlLk6GJQsqaUBKTNV-1">
          <mxGeometry x="400" y="600" width="120" height="60" as="geometry" />
        </mxCell>
        <mxCell id="YItXJIGkTRW7YODAp5qy-50" style="edgeStyle=orthogonalEdgeStyle;rounded=0;orthogonalLoop=1;jettySize=auto;html=1;" edge="1" parent="WIyWlLk6GJQsqaUBKTNV-1" source="YItXJIGkTRW7YODAp5qy-47">
          <mxGeometry relative="1" as="geometry">
            <mxPoint x="650" y="960" as="targetPoint" />
          </mxGeometry>
        </mxCell>
        <mxCell id="YItXJIGkTRW7YODAp5qy-52" value="Sim" style="edgeLabel;html=1;align=center;verticalAlign=middle;resizable=0;points=[];" vertex="1" connectable="0" parent="YItXJIGkTRW7YODAp5qy-50">
          <mxGeometry x="-0.7771" y="-1" relative="1" as="geometry">
            <mxPoint y="1" as="offset" />
          </mxGeometry>
        </mxCell>
        <mxCell id="YItXJIGkTRW7YODAp5qy-53" style="edgeStyle=orthogonalEdgeStyle;rounded=0;orthogonalLoop=1;jettySize=auto;html=1;entryX=1;entryY=0.5;entryDx=0;entryDy=0;" edge="1" parent="WIyWlLk6GJQsqaUBKTNV-1" source="YItXJIGkTRW7YODAp5qy-47" target="YItXJIGkTRW7YODAp5qy-7">
          <mxGeometry relative="1" as="geometry">
            <Array as="points">
              <mxPoint x="790" y="890" />
              <mxPoint x="790" y="570" />
            </Array>
          </mxGeometry>
        </mxCell>
        <mxCell id="YItXJIGkTRW7YODAp5qy-54" value="Não" style="edgeLabel;html=1;align=center;verticalAlign=middle;resizable=0;points=[];" vertex="1" connectable="0" parent="YItXJIGkTRW7YODAp5qy-53">
          <mxGeometry x="-0.9453" y="1" relative="1" as="geometry">
            <mxPoint as="offset" />
          </mxGeometry>
        </mxCell>
        <mxCell id="YItXJIGkTRW7YODAp5qy-47" value="Muitos Erros?" style="rhombus;whiteSpace=wrap;html=1;" vertex="1" parent="WIyWlLk6GJQsqaUBKTNV-1">
          <mxGeometry x="600" y="850" width="100" height="80" as="geometry" />
        </mxCell>
        <mxCell id="YItXJIGkTRW7YODAp5qy-55" style="edgeStyle=orthogonalEdgeStyle;rounded=0;orthogonalLoop=1;jettySize=auto;html=1;entryX=1;entryY=0.5;entryDx=0;entryDy=0;" edge="1" parent="WIyWlLk6GJQsqaUBKTNV-1" source="YItXJIGkTRW7YODAp5qy-51" target="WIyWlLk6GJQsqaUBKTNV-11">
          <mxGeometry relative="1" as="geometry">
            <Array as="points">
              <mxPoint x="810" y="990" />
              <mxPoint x="810" y="450" />
            </Array>
          </mxGeometry>
        </mxCell>
        <mxCell id="YItXJIGkTRW7YODAp5qy-58" style="edgeStyle=orthogonalEdgeStyle;rounded=0;orthogonalLoop=1;jettySize=auto;html=1;entryX=1;entryY=0.5;entryDx=0;entryDy=0;" edge="1" parent="WIyWlLk6GJQsqaUBKTNV-1" source="YItXJIGkTRW7YODAp5qy-51" target="YItXJIGkTRW7YODAp5qy-56">
          <mxGeometry relative="1" as="geometry" />
        </mxCell>
        <mxCell id="YItXJIGkTRW7YODAp5qy-51" value="Timeout" style="rounded=1;whiteSpace=wrap;html=1;" vertex="1" parent="WIyWlLk6GJQsqaUBKTNV-1">
          <mxGeometry x="590" y="960" width="120" height="60" as="geometry" />
        </mxCell>
        <mxCell id="YItXJIGkTRW7YODAp5qy-56" value="Redefine Contador" style="rounded=1;whiteSpace=wrap;html=1;" vertex="1" parent="WIyWlLk6GJQsqaUBKTNV-1">
          <mxGeometry x="400" y="960" width="120" height="60" as="geometry" />
        </mxCell>
        <mxCell id="YItXJIGkTRW7YODAp5qy-64" style="edgeStyle=orthogonalEdgeStyle;rounded=0;orthogonalLoop=1;jettySize=auto;html=1;entryX=0.5;entryY=0;entryDx=0;entryDy=0;" edge="1" parent="WIyWlLk6GJQsqaUBKTNV-1" source="YItXJIGkTRW7YODAp5qy-59" target="YItXJIGkTRW7YODAp5qy-63">
          <mxGeometry relative="1" as="geometry" />
        </mxCell>
        <mxCell id="YItXJIGkTRW7YODAp5qy-59" value="Standby" style="rounded=1;whiteSpace=wrap;html=1;" vertex="1" parent="WIyWlLk6GJQsqaUBKTNV-1">
          <mxGeometry x="140" y="960" width="120" height="60" as="geometry" />
        </mxCell>
        <mxCell id="YItXJIGkTRW7YODAp5qy-69" style="edgeStyle=orthogonalEdgeStyle;rounded=0;orthogonalLoop=1;jettySize=auto;html=1;entryX=0.5;entryY=1;entryDx=0;entryDy=0;" edge="1" parent="WIyWlLk6GJQsqaUBKTNV-1" source="YItXJIGkTRW7YODAp5qy-63" target="YItXJIGkTRW7YODAp5qy-73">
          <mxGeometry relative="1" as="geometry">
            <Array as="points">
              <mxPoint x="70" y="1090" />
            </Array>
          </mxGeometry>
        </mxCell>
        <mxCell id="YItXJIGkTRW7YODAp5qy-70" value="Sim" style="edgeLabel;html=1;align=center;verticalAlign=middle;resizable=0;points=[];" vertex="1" connectable="0" parent="YItXJIGkTRW7YODAp5qy-69">
          <mxGeometry x="-0.9273" y="3" relative="1" as="geometry">
            <mxPoint as="offset" />
          </mxGeometry>
        </mxCell>
        <mxCell id="YItXJIGkTRW7YODAp5qy-76" style="edgeStyle=orthogonalEdgeStyle;rounded=0;orthogonalLoop=1;jettySize=auto;html=1;entryX=1;entryY=0.5;entryDx=0;entryDy=0;" edge="1" parent="WIyWlLk6GJQsqaUBKTNV-1" source="YItXJIGkTRW7YODAp5qy-63" target="YItXJIGkTRW7YODAp5qy-59">
          <mxGeometry relative="1" as="geometry">
            <mxPoint x="200" y="1169" as="targetPoint" />
            <Array as="points">
              <mxPoint x="200" y="1150" />
              <mxPoint x="330" y="1150" />
              <mxPoint x="330" y="990" />
            </Array>
          </mxGeometry>
        </mxCell>
        <mxCell id="YItXJIGkTRW7YODAp5qy-77" value="Não" style="edgeLabel;html=1;align=center;verticalAlign=middle;resizable=0;points=[];" vertex="1" connectable="0" parent="YItXJIGkTRW7YODAp5qy-76">
          <mxGeometry x="-0.4244" y="3" relative="1" as="geometry">
            <mxPoint as="offset" />
          </mxGeometry>
        </mxCell>
        <mxCell id="YItXJIGkTRW7YODAp5qy-63" value="Sensor detecta porta fechada" style="rhombus;whiteSpace=wrap;html=1;" vertex="1" parent="WIyWlLk6GJQsqaUBKTNV-1">
          <mxGeometry x="150" y="1050" width="100" height="80" as="geometry" />
        </mxCell>
        <mxCell id="YItXJIGkTRW7YODAp5qy-74" style="edgeStyle=orthogonalEdgeStyle;rounded=0;orthogonalLoop=1;jettySize=auto;html=1;entryX=0;entryY=0.5;entryDx=0;entryDy=0;" edge="1" parent="WIyWlLk6GJQsqaUBKTNV-1" source="YItXJIGkTRW7YODAp5qy-73" target="WIyWlLk6GJQsqaUBKTNV-11">
          <mxGeometry relative="1" as="geometry">
            <Array as="points">
              <mxPoint x="70" y="450" />
            </Array>
          </mxGeometry>
        </mxCell>
        <mxCell id="YItXJIGkTRW7YODAp5qy-73" value="Fecha Cofre" style="rounded=1;whiteSpace=wrap;html=1;" vertex="1" parent="WIyWlLk6GJQsqaUBKTNV-1">
          <mxGeometry x="10" y="920" width="120" height="60" as="geometry" />
        </mxCell>
      </root>
    </mxGraphModel>
  </diagram>
</mxfile>
